<mxfile host="app.diagrams.net" modified="2023-08-27T15:56:51.360Z" agent="Mozilla/5.0 (X11; Linux x86_64) AppleWebKit/537.36 (KHTML, like Gecko) Chrome/116.0.0.0 Safari/537.36" etag="tobNssp6j3wrTcBgOIAp" version="21.6.9" type="github" pages="2">
  <diagram name="Set-C-AD" id="e7e014a7-5840-1c2e-5031-d8a46d1fe8dd">
    <mxGraphModel dx="1953" dy="1167" grid="1" gridSize="10" guides="1" tooltips="1" connect="1" arrows="1" fold="1" page="1" pageScale="1" pageWidth="1169" pageHeight="826" background="none" math="0" shadow="0">
      <root>
        <mxCell id="0" />
        <mxCell id="1" parent="0" />
        <mxCell id="r0urs76Jr6dByc6dt-cb-3" value="" style="edgeStyle=orthogonalEdgeStyle;rounded=0;orthogonalLoop=1;jettySize=auto;html=1;" edge="1" parent="1" source="r0urs76Jr6dByc6dt-cb-1" target="r0urs76Jr6dByc6dt-cb-2">
          <mxGeometry relative="1" as="geometry" />
        </mxCell>
        <mxCell id="r0urs76Jr6dByc6dt-cb-1" value="" style="ellipse;whiteSpace=wrap;html=1;aspect=fixed;fillColor=#080808;" vertex="1" parent="1">
          <mxGeometry x="930" y="20" width="60" height="60" as="geometry" />
        </mxCell>
        <mxCell id="r0urs76Jr6dByc6dt-cb-7" value="" style="edgeStyle=orthogonalEdgeStyle;rounded=0;orthogonalLoop=1;jettySize=auto;html=1;" edge="1" parent="1" source="r0urs76Jr6dByc6dt-cb-2" target="r0urs76Jr6dByc6dt-cb-6">
          <mxGeometry relative="1" as="geometry" />
        </mxCell>
        <mxCell id="r0urs76Jr6dByc6dt-cb-2" value="Login" style="whiteSpace=wrap;html=1;rounded=1;" vertex="1" parent="1">
          <mxGeometry x="905" y="160" width="110" height="30" as="geometry" />
        </mxCell>
        <mxCell id="r0urs76Jr6dByc6dt-cb-9" value="" style="edgeStyle=orthogonalEdgeStyle;rounded=0;orthogonalLoop=1;jettySize=auto;html=1;" edge="1" parent="1" source="r0urs76Jr6dByc6dt-cb-6" target="r0urs76Jr6dByc6dt-cb-8">
          <mxGeometry relative="1" as="geometry" />
        </mxCell>
        <mxCell id="r0urs76Jr6dByc6dt-cb-6" value="Authentication" style="whiteSpace=wrap;html=1;rounded=1;" vertex="1" parent="1">
          <mxGeometry x="905" y="270" width="110" height="30" as="geometry" />
        </mxCell>
        <mxCell id="r0urs76Jr6dByc6dt-cb-10" style="edgeStyle=orthogonalEdgeStyle;rounded=0;orthogonalLoop=1;jettySize=auto;html=1;entryX=1;entryY=0.5;entryDx=0;entryDy=0;" edge="1" parent="1" source="r0urs76Jr6dByc6dt-cb-8" target="r0urs76Jr6dByc6dt-cb-2">
          <mxGeometry relative="1" as="geometry">
            <mxPoint x="1120" y="160" as="targetPoint" />
            <Array as="points">
              <mxPoint x="1120" y="392" />
              <mxPoint x="1120" y="175" />
            </Array>
          </mxGeometry>
        </mxCell>
        <mxCell id="r0urs76Jr6dByc6dt-cb-13" style="edgeStyle=orthogonalEdgeStyle;rounded=0;orthogonalLoop=1;jettySize=auto;html=1;exitX=0.5;exitY=1;exitDx=0;exitDy=0;entryX=0.5;entryY=0;entryDx=0;entryDy=0;" edge="1" parent="1" source="r0urs76Jr6dByc6dt-cb-8" target="r0urs76Jr6dByc6dt-cb-12">
          <mxGeometry relative="1" as="geometry" />
        </mxCell>
        <mxCell id="r0urs76Jr6dByc6dt-cb-8" value="Check" style="rhombus;whiteSpace=wrap;html=1;rounded=1;" vertex="1" parent="1">
          <mxGeometry x="925" y="360" width="70" height="65" as="geometry" />
        </mxCell>
        <mxCell id="r0urs76Jr6dByc6dt-cb-11" value="Invalid" style="text;html=1;align=center;verticalAlign=middle;resizable=0;points=[];autosize=1;strokeColor=none;fillColor=none;" vertex="1" parent="1">
          <mxGeometry x="1000" y="358" width="60" height="30" as="geometry" />
        </mxCell>
        <mxCell id="r0urs76Jr6dByc6dt-cb-12" value="" style="shape=partialRectangle;whiteSpace=wrap;html=1;left=0;right=0;fillColor=none;" vertex="1" parent="1">
          <mxGeometry x="740" y="460" width="440" height="20" as="geometry" />
        </mxCell>
        <mxCell id="r0urs76Jr6dByc6dt-cb-15" value="Search Product" style="whiteSpace=wrap;html=1;fillColor=none;rounded=1;" vertex="1" parent="1">
          <mxGeometry x="610" y="630" width="110" height="30" as="geometry" />
        </mxCell>
        <mxCell id="r0urs76Jr6dByc6dt-cb-18" value="Edit Profile" style="rounded=1;whiteSpace=wrap;html=1;" vertex="1" parent="1">
          <mxGeometry x="820" y="630" width="120" height="30" as="geometry" />
        </mxCell>
        <mxCell id="r0urs76Jr6dByc6dt-cb-22" value="My account" style="rounded=1;whiteSpace=wrap;html=1;" vertex="1" parent="1">
          <mxGeometry x="900" y="740" width="120" height="30" as="geometry" />
        </mxCell>
        <mxCell id="r0urs76Jr6dByc6dt-cb-25" value="" style="endArrow=classic;html=1;rounded=0;entryX=0.457;entryY=-0.081;entryDx=0;entryDy=0;entryPerimeter=0;" edge="1" parent="1" target="r0urs76Jr6dByc6dt-cb-22">
          <mxGeometry width="50" height="50" relative="1" as="geometry">
            <mxPoint x="920" y="660" as="sourcePoint" />
            <mxPoint x="970" y="610" as="targetPoint" />
            <Array as="points">
              <mxPoint x="920" y="660" />
            </Array>
          </mxGeometry>
        </mxCell>
        <mxCell id="r0urs76Jr6dByc6dt-cb-26" value="" style="endArrow=classic;html=1;rounded=0;entryX=0.447;entryY=-0.001;entryDx=0;entryDy=0;entryPerimeter=0;" edge="1" parent="1" target="r0urs76Jr6dByc6dt-cb-15">
          <mxGeometry width="50" height="50" relative="1" as="geometry">
            <mxPoint x="780" y="480" as="sourcePoint" />
            <mxPoint x="830" y="430" as="targetPoint" />
          </mxGeometry>
        </mxCell>
        <mxCell id="r0urs76Jr6dByc6dt-cb-27" value="" style="endArrow=classic;html=1;rounded=0;entryX=0.5;entryY=0;entryDx=0;entryDy=0;" edge="1" parent="1" target="r0urs76Jr6dByc6dt-cb-18">
          <mxGeometry width="50" height="50" relative="1" as="geometry">
            <mxPoint x="870" y="480" as="sourcePoint" />
            <mxPoint x="920" y="430" as="targetPoint" />
          </mxGeometry>
        </mxCell>
        <mxCell id="r0urs76Jr6dByc6dt-cb-28" value="" style="endArrow=classic;html=1;rounded=0;entryX=0.5;entryY=0;entryDx=0;entryDy=0;" edge="1" parent="1" target="r0urs76Jr6dByc6dt-cb-29">
          <mxGeometry width="50" height="50" relative="1" as="geometry">
            <mxPoint x="1070" y="480" as="sourcePoint" />
            <mxPoint x="1160" y="630" as="targetPoint" />
          </mxGeometry>
        </mxCell>
        <mxCell id="r0urs76Jr6dByc6dt-cb-29" value="View Reports" style="rounded=1;whiteSpace=wrap;html=1;" vertex="1" parent="1">
          <mxGeometry x="1130" y="600" width="120" height="30" as="geometry" />
        </mxCell>
        <mxCell id="r0urs76Jr6dByc6dt-cb-30" value="Order Reports" style="rounded=1;whiteSpace=wrap;html=1;" vertex="1" parent="1">
          <mxGeometry x="1210" y="698" width="120" height="30" as="geometry" />
        </mxCell>
        <mxCell id="r0urs76Jr6dByc6dt-cb-31" value="View Reports" style="rounded=1;whiteSpace=wrap;html=1;" vertex="1" parent="1">
          <mxGeometry x="1090" y="770" width="120" height="30" as="geometry" />
        </mxCell>
        <mxCell id="r0urs76Jr6dByc6dt-cb-32" value="Change Password" style="rounded=1;whiteSpace=wrap;html=1;" vertex="1" parent="1">
          <mxGeometry x="750" y="750" width="120" height="30" as="geometry" />
        </mxCell>
        <mxCell id="r0urs76Jr6dByc6dt-cb-38" style="edgeStyle=orthogonalEdgeStyle;rounded=0;orthogonalLoop=1;jettySize=auto;html=1;exitX=0.5;exitY=1;exitDx=0;exitDy=0;entryX=0.5;entryY=0;entryDx=0;entryDy=0;" edge="1" parent="1" source="r0urs76Jr6dByc6dt-cb-33" target="r0urs76Jr6dByc6dt-cb-34">
          <mxGeometry relative="1" as="geometry">
            <Array as="points">
              <mxPoint x="560" y="760" />
            </Array>
          </mxGeometry>
        </mxCell>
        <mxCell id="r0urs76Jr6dByc6dt-cb-33" value="Add To Cart" style="rounded=1;whiteSpace=wrap;html=1;" vertex="1" parent="1">
          <mxGeometry x="510" y="730" width="120" height="30" as="geometry" />
        </mxCell>
        <mxCell id="r0urs76Jr6dByc6dt-cb-34" value="Cancel Order" style="rounded=1;whiteSpace=wrap;html=1;" vertex="1" parent="1">
          <mxGeometry x="500" y="826" width="120" height="30" as="geometry" />
        </mxCell>
        <mxCell id="r0urs76Jr6dByc6dt-cb-37" style="edgeStyle=orthogonalEdgeStyle;rounded=0;orthogonalLoop=1;jettySize=auto;html=1;entryX=0.5;entryY=0;entryDx=0;entryDy=0;" edge="1" parent="1" source="r0urs76Jr6dByc6dt-cb-35" target="r0urs76Jr6dByc6dt-cb-36">
          <mxGeometry relative="1" as="geometry" />
        </mxCell>
        <mxCell id="r0urs76Jr6dByc6dt-cb-35" value="Make Payment" style="rounded=1;whiteSpace=wrap;html=1;" vertex="1" parent="1">
          <mxGeometry x="660" y="826" width="120" height="30" as="geometry" />
        </mxCell>
        <mxCell id="r0urs76Jr6dByc6dt-cb-36" value="Confirm order" style="rounded=1;whiteSpace=wrap;html=1;" vertex="1" parent="1">
          <mxGeometry x="660" y="910" width="120" height="30" as="geometry" />
        </mxCell>
        <mxCell id="r0urs76Jr6dByc6dt-cb-39" value="" style="endArrow=classic;html=1;rounded=0;entryX=0.5;entryY=0;entryDx=0;entryDy=0;" edge="1" parent="1" target="r0urs76Jr6dByc6dt-cb-32">
          <mxGeometry width="50" height="50" relative="1" as="geometry">
            <mxPoint x="850" y="660" as="sourcePoint" />
            <mxPoint x="885" y="738" as="targetPoint" />
            <Array as="points">
              <mxPoint x="850" y="660" />
            </Array>
          </mxGeometry>
        </mxCell>
        <mxCell id="r0urs76Jr6dByc6dt-cb-40" value="" style="endArrow=classic;html=1;rounded=0;entryX=0.5;entryY=0;entryDx=0;entryDy=0;" edge="1" parent="1" target="r0urs76Jr6dByc6dt-cb-30">
          <mxGeometry width="50" height="50" relative="1" as="geometry">
            <mxPoint x="1220" y="630" as="sourcePoint" />
            <mxPoint x="1255" y="708" as="targetPoint" />
            <Array as="points">
              <mxPoint x="1220" y="630" />
            </Array>
          </mxGeometry>
        </mxCell>
        <mxCell id="r0urs76Jr6dByc6dt-cb-41" value="" style="endArrow=classic;html=1;rounded=0;entryX=0.5;entryY=0;entryDx=0;entryDy=0;" edge="1" parent="1" target="r0urs76Jr6dByc6dt-cb-31">
          <mxGeometry width="50" height="50" relative="1" as="geometry">
            <mxPoint x="1169" y="630" as="sourcePoint" />
            <mxPoint x="1204" y="708" as="targetPoint" />
            <Array as="points">
              <mxPoint x="1169" y="630" />
            </Array>
          </mxGeometry>
        </mxCell>
        <mxCell id="r0urs76Jr6dByc6dt-cb-54" style="edgeStyle=orthogonalEdgeStyle;rounded=0;orthogonalLoop=1;jettySize=auto;html=1;entryX=0.5;entryY=0;entryDx=0;entryDy=0;" edge="1" parent="1" source="r0urs76Jr6dByc6dt-cb-42" target="r0urs76Jr6dByc6dt-cb-53">
          <mxGeometry relative="1" as="geometry" />
        </mxCell>
        <mxCell id="r0urs76Jr6dByc6dt-cb-42" value="" style="shape=partialRectangle;whiteSpace=wrap;html=1;left=0;right=0;fillColor=none;" vertex="1" parent="1">
          <mxGeometry x="530" y="1030" width="860" height="20" as="geometry" />
        </mxCell>
        <mxCell id="r0urs76Jr6dByc6dt-cb-44" value="" style="endArrow=classic;html=1;rounded=0;entryX=0.5;entryY=0;entryDx=0;entryDy=0;" edge="1" parent="1" target="r0urs76Jr6dByc6dt-cb-35">
          <mxGeometry width="50" height="50" relative="1" as="geometry">
            <mxPoint x="604" y="760" as="sourcePoint" />
            <mxPoint x="585" y="900" as="targetPoint" />
            <Array as="points">
              <mxPoint x="604" y="760" />
            </Array>
          </mxGeometry>
        </mxCell>
        <mxCell id="r0urs76Jr6dByc6dt-cb-45" value="" style="endArrow=classic;html=1;rounded=0;entryX=0.5;entryY=0;entryDx=0;entryDy=0;" edge="1" parent="1" target="r0urs76Jr6dByc6dt-cb-33">
          <mxGeometry width="50" height="50" relative="1" as="geometry">
            <mxPoint x="660" y="660" as="sourcePoint" />
            <mxPoint x="620" y="750" as="targetPoint" />
            <Array as="points">
              <mxPoint x="660" y="660" />
            </Array>
          </mxGeometry>
        </mxCell>
        <mxCell id="r0urs76Jr6dByc6dt-cb-46" value="" style="endArrow=classic;html=1;rounded=0;entryX=0.462;entryY=-0.097;entryDx=0;entryDy=0;entryPerimeter=0;" edge="1" parent="1" target="r0urs76Jr6dByc6dt-cb-42">
          <mxGeometry width="50" height="50" relative="1" as="geometry">
            <mxPoint x="970" y="770" as="sourcePoint" />
            <mxPoint x="930" y="860" as="targetPoint" />
            <Array as="points">
              <mxPoint x="970" y="770" />
            </Array>
          </mxGeometry>
        </mxCell>
        <mxCell id="r0urs76Jr6dByc6dt-cb-47" value="" style="endArrow=classic;html=1;rounded=0;entryX=0.354;entryY=0.113;entryDx=0;entryDy=0;entryPerimeter=0;" edge="1" parent="1" target="r0urs76Jr6dByc6dt-cb-42">
          <mxGeometry width="50" height="50" relative="1" as="geometry">
            <mxPoint x="813" y="776" as="sourcePoint" />
            <mxPoint x="770" y="1034" as="targetPoint" />
            <Array as="points">
              <mxPoint x="813" y="776" />
            </Array>
          </mxGeometry>
        </mxCell>
        <mxCell id="r0urs76Jr6dByc6dt-cb-48" value="" style="endArrow=classic;html=1;rounded=0;entryX=0.824;entryY=0.113;entryDx=0;entryDy=0;entryPerimeter=0;" edge="1" parent="1" target="r0urs76Jr6dByc6dt-cb-42">
          <mxGeometry width="50" height="50" relative="1" as="geometry">
            <mxPoint x="1283" y="728" as="sourcePoint" />
            <mxPoint x="1230" y="1020" as="targetPoint" />
            <Array as="points">
              <mxPoint x="1283" y="728" />
            </Array>
          </mxGeometry>
        </mxCell>
        <mxCell id="r0urs76Jr6dByc6dt-cb-49" value="" style="endArrow=classic;html=1;rounded=0;entryX=0.68;entryY=0.113;entryDx=0;entryDy=0;entryPerimeter=0;" edge="1" parent="1" target="r0urs76Jr6dByc6dt-cb-42">
          <mxGeometry width="50" height="50" relative="1" as="geometry">
            <mxPoint x="1153" y="798" as="sourcePoint" />
            <mxPoint x="1110" y="1056" as="targetPoint" />
            <Array as="points">
              <mxPoint x="1153" y="798" />
            </Array>
          </mxGeometry>
        </mxCell>
        <mxCell id="r0urs76Jr6dByc6dt-cb-51" value="" style="endArrow=classic;html=1;rounded=0;entryX=0.085;entryY=0.113;entryDx=0;entryDy=0;entryPerimeter=0;" edge="1" parent="1" target="r0urs76Jr6dByc6dt-cb-42">
          <mxGeometry width="50" height="50" relative="1" as="geometry">
            <mxPoint x="560" y="856" as="sourcePoint" />
            <mxPoint x="470" y="926" as="targetPoint" />
            <Array as="points">
              <mxPoint x="560" y="856" />
            </Array>
          </mxGeometry>
        </mxCell>
        <mxCell id="r0urs76Jr6dByc6dt-cb-52" value="" style="endArrow=classic;html=1;rounded=0;entryX=0.212;entryY=-0.15;entryDx=0;entryDy=0;entryPerimeter=0;" edge="1" parent="1" target="r0urs76Jr6dByc6dt-cb-42">
          <mxGeometry width="50" height="50" relative="1" as="geometry">
            <mxPoint x="720" y="940" as="sourcePoint" />
            <mxPoint x="630" y="1010" as="targetPoint" />
            <Array as="points">
              <mxPoint x="720" y="940" />
            </Array>
          </mxGeometry>
        </mxCell>
        <mxCell id="r0urs76Jr6dByc6dt-cb-56" value="" style="edgeStyle=orthogonalEdgeStyle;rounded=0;orthogonalLoop=1;jettySize=auto;html=1;" edge="1" parent="1" source="r0urs76Jr6dByc6dt-cb-53" target="r0urs76Jr6dByc6dt-cb-55">
          <mxGeometry relative="1" as="geometry" />
        </mxCell>
        <mxCell id="r0urs76Jr6dByc6dt-cb-53" value="Logout" style="rounded=1;whiteSpace=wrap;html=1;" vertex="1" parent="1">
          <mxGeometry x="900" y="1170" width="120" height="30" as="geometry" />
        </mxCell>
        <mxCell id="r0urs76Jr6dByc6dt-cb-55" value="" style="ellipse;whiteSpace=wrap;html=1;rounded=1;fillColor=#080808;" vertex="1" parent="1">
          <mxGeometry x="942.5" y="1300" width="35" height="35" as="geometry" />
        </mxCell>
      </root>
    </mxGraphModel>
  </diagram>
  <diagram id="TlXsCn64E0u2odGIHX1q" name="UCD ATM">
    <mxGraphModel dx="879" dy="525" grid="1" gridSize="10" guides="1" tooltips="1" connect="1" arrows="1" fold="1" page="1" pageScale="1" pageWidth="850" pageHeight="1100" math="0" shadow="0">
      <root>
        <mxCell id="0" />
        <mxCell id="1" parent="0" />
        <mxCell id="Znb7u9qUBhvHDBVoPwWZ-1" value="Actor" style="shape=umlActor;verticalLabelPosition=bottom;verticalAlign=top;html=1;outlineConnect=0;" vertex="1" parent="1">
          <mxGeometry x="100" y="50" width="30" height="60" as="geometry" />
        </mxCell>
        <mxCell id="Znb7u9qUBhvHDBVoPwWZ-2" value="Actor" style="shape=umlActor;verticalLabelPosition=bottom;verticalAlign=top;html=1;outlineConnect=0;" vertex="1" parent="1">
          <mxGeometry x="100" y="390" width="30" height="60" as="geometry" />
        </mxCell>
        <mxCell id="Znb7u9qUBhvHDBVoPwWZ-6" value="" style="rounded=0;whiteSpace=wrap;html=1;" vertex="1" parent="1">
          <mxGeometry x="220" y="30" width="440" height="450" as="geometry" />
        </mxCell>
        <mxCell id="Znb7u9qUBhvHDBVoPwWZ-7" value="Balance inquiry" style="rounded=1;whiteSpace=wrap;html=1;" vertex="1" parent="1">
          <mxGeometry x="380" y="50" width="110" height="40" as="geometry" />
        </mxCell>
        <mxCell id="Znb7u9qUBhvHDBVoPwWZ-8" value="Withdraw" style="rounded=1;whiteSpace=wrap;html=1;" vertex="1" parent="1">
          <mxGeometry x="380" y="120" width="110" height="40" as="geometry" />
        </mxCell>
        <mxCell id="Znb7u9qUBhvHDBVoPwWZ-9" value="Invoice Printing&amp;nbsp;" style="rounded=1;whiteSpace=wrap;html=1;" vertex="1" parent="1">
          <mxGeometry x="380" y="190" width="110" height="40" as="geometry" />
        </mxCell>
        <mxCell id="Znb7u9qUBhvHDBVoPwWZ-10" value="Transfer Funds" style="rounded=1;whiteSpace=wrap;html=1;" vertex="1" parent="1">
          <mxGeometry x="380" y="260" width="110" height="40" as="geometry" />
        </mxCell>
        <mxCell id="Znb7u9qUBhvHDBVoPwWZ-11" value="Maintenance" style="rounded=1;whiteSpace=wrap;html=1;" vertex="1" parent="1">
          <mxGeometry x="380" y="330" width="110" height="40" as="geometry" />
        </mxCell>
        <mxCell id="Znb7u9qUBhvHDBVoPwWZ-12" value="Software Backend" style="rounded=1;whiteSpace=wrap;html=1;" vertex="1" parent="1">
          <mxGeometry x="380" y="400" width="110" height="40" as="geometry" />
        </mxCell>
        <mxCell id="Znb7u9qUBhvHDBVoPwWZ-13" value="" style="endArrow=classic;html=1;rounded=0;" edge="1" parent="1">
          <mxGeometry width="50" height="50" relative="1" as="geometry">
            <mxPoint x="150" y="60" as="sourcePoint" />
            <mxPoint x="380" y="60" as="targetPoint" />
          </mxGeometry>
        </mxCell>
        <mxCell id="Znb7u9qUBhvHDBVoPwWZ-14" value="" style="endArrow=classic;html=1;rounded=0;" edge="1" parent="1">
          <mxGeometry width="50" height="50" relative="1" as="geometry">
            <mxPoint x="150" y="80" as="sourcePoint" />
            <mxPoint x="380" y="140" as="targetPoint" />
          </mxGeometry>
        </mxCell>
        <mxCell id="Znb7u9qUBhvHDBVoPwWZ-15" value="" style="endArrow=classic;html=1;rounded=0;" edge="1" parent="1">
          <mxGeometry width="50" height="50" relative="1" as="geometry">
            <mxPoint x="140" y="90" as="sourcePoint" />
            <mxPoint x="380" y="210" as="targetPoint" />
          </mxGeometry>
        </mxCell>
        <mxCell id="Znb7u9qUBhvHDBVoPwWZ-16" value="" style="endArrow=classic;html=1;rounded=0;" edge="1" parent="1">
          <mxGeometry width="50" height="50" relative="1" as="geometry">
            <mxPoint x="150" y="120" as="sourcePoint" />
            <mxPoint x="380" y="280" as="targetPoint" />
          </mxGeometry>
        </mxCell>
        <mxCell id="Znb7u9qUBhvHDBVoPwWZ-18" value="" style="endArrow=classic;html=1;rounded=0;" edge="1" parent="1">
          <mxGeometry width="50" height="50" relative="1" as="geometry">
            <mxPoint x="140" y="440" as="sourcePoint" />
            <mxPoint x="380" y="420" as="targetPoint" />
          </mxGeometry>
        </mxCell>
        <mxCell id="Znb7u9qUBhvHDBVoPwWZ-20" value="" style="endArrow=classic;html=1;rounded=0;" edge="1" parent="1">
          <mxGeometry width="50" height="50" relative="1" as="geometry">
            <mxPoint x="750" y="239.63636363636363" as="sourcePoint" />
            <mxPoint x="490" y="60" as="targetPoint" />
          </mxGeometry>
        </mxCell>
        <mxCell id="Znb7u9qUBhvHDBVoPwWZ-21" value="" style="endArrow=classic;html=1;rounded=0;" edge="1" parent="1">
          <mxGeometry width="50" height="50" relative="1" as="geometry">
            <mxPoint x="750" y="247.81818181818187" as="sourcePoint" />
            <mxPoint x="490" y="210" as="targetPoint" />
          </mxGeometry>
        </mxCell>
        <mxCell id="Znb7u9qUBhvHDBVoPwWZ-22" value="" style="endArrow=classic;html=1;rounded=0;" edge="1" parent="1">
          <mxGeometry width="50" height="50" relative="1" as="geometry">
            <mxPoint x="750" y="250" as="sourcePoint" />
            <mxPoint x="490" y="130" as="targetPoint" />
          </mxGeometry>
        </mxCell>
        <mxCell id="Znb7u9qUBhvHDBVoPwWZ-23" value="" style="endArrow=classic;html=1;rounded=0;" edge="1" parent="1">
          <mxGeometry width="50" height="50" relative="1" as="geometry">
            <mxPoint x="750" y="251.63636363636363" as="sourcePoint" />
            <mxPoint x="490" y="280" as="targetPoint" />
          </mxGeometry>
        </mxCell>
        <mxCell id="Znb7u9qUBhvHDBVoPwWZ-24" value="" style="endArrow=classic;html=1;rounded=0;" edge="1" parent="1">
          <mxGeometry width="50" height="50" relative="1" as="geometry">
            <mxPoint x="750" y="255.4545454545455" as="sourcePoint" />
            <mxPoint x="490" y="350" as="targetPoint" />
          </mxGeometry>
        </mxCell>
        <mxCell id="Znb7u9qUBhvHDBVoPwWZ-25" value="" style="endArrow=classic;html=1;rounded=0;" edge="1" parent="1">
          <mxGeometry width="50" height="50" relative="1" as="geometry">
            <mxPoint x="750" y="259.27272727272725" as="sourcePoint" />
            <mxPoint x="490" y="420" as="targetPoint" />
          </mxGeometry>
        </mxCell>
        <mxCell id="Znb7u9qUBhvHDBVoPwWZ-26" value="" style="endArrow=classic;html=1;rounded=0;exitX=0.5;exitY=0.5;exitDx=0;exitDy=0;exitPerimeter=0;" edge="1" parent="1" source="Znb7u9qUBhvHDBVoPwWZ-2">
          <mxGeometry width="50" height="50" relative="1" as="geometry">
            <mxPoint x="140" y="370" as="sourcePoint" />
            <mxPoint x="380" y="350" as="targetPoint" />
          </mxGeometry>
        </mxCell>
        <mxCell id="Znb7u9qUBhvHDBVoPwWZ-27" value="" style="shape=mxgraph.signs.travel.bank;html=1;pointerEvents=1;fillColor=#FFFFFF;strokeColor=default;verticalLabelPosition=bottom;verticalAlign=top;align=center;strokeWidth=3;" vertex="1" parent="1">
          <mxGeometry x="751" y="190" width="99" height="86" as="geometry" />
        </mxCell>
        <mxCell id="Znb7u9qUBhvHDBVoPwWZ-28" value="Bank" style="text;html=1;align=center;verticalAlign=middle;resizable=0;points=[];autosize=1;strokeColor=none;fillColor=none;" vertex="1" parent="1">
          <mxGeometry x="765" y="288" width="50" height="30" as="geometry" />
        </mxCell>
        <mxCell id="Znb7u9qUBhvHDBVoPwWZ-29" value="" style="html=1;verticalLabelPosition=bottom;align=center;labelBackgroundColor=#ffffff;verticalAlign=top;strokeWidth=2;strokeColor=#080808;shadow=0;dashed=0;shape=mxgraph.ios7.icons.tools;pointerEvents=1" vertex="1" parent="1">
          <mxGeometry x="60" y="406" width="29.7" height="29.7" as="geometry" />
        </mxCell>
      </root>
    </mxGraphModel>
  </diagram>
</mxfile>
